<?xml version="1.0" standalone="no"?>
<!DOCTYPE svg PUBLIC "-//W3C//DTD SVG 20010904//EN"
 "http://www.w3.org/TR/2001/REC-SVG-20010904/DTD/svg10.dtd">
<svg version="1.0" xmlns="http://www.w3.org/2000/svg"
 width="480.000000pt" height="480.000000pt" viewBox="0 0 480.000000 480.000000"
 preserveAspectRatio="xMidYMid meet">
<metadata>
Created by potrace 1.14, written by Peter Selinger 2001-2017
</metadata>
<g transform="translate(0.000000,480.000000) scale(0.100000,-0.100000)"
fill="#000000" stroke="none">
<path d="M1287 4784 c-4 -4 -37 -7 -74 -8 -37 -1 -74 -5 -82 -10 -10 -6 -12
-5 -7 2 8 13 -6 17 -18 5 -3 -4 -25 -8 -49 -9 -23 -1 -42 -2 -42 -3 0 -1 -31
-4 -70 -7 -38 -3 -76 -6 -82 -6 -7 -1 -13 -5 -13 -8 0 -4 -15 -8 -32 -9 -61
-1 -68 -2 -68 -9 0 -7 -25 -12 -67 -15 -7 0 -13 -4 -13 -9 0 -4 -3 -7 -7 -6
-20 5 -73 -15 -67 -24 4 -6 2 -8 -3 -5 -6 4 -28 -1 -49 -10 -22 -9 -41 -17
-44 -18 -24 -7 -39 -19 -34 -26 3 -5 -2 -6 -10 -3 -9 3 -16 1 -16 -6 0 -6 -5
-8 -10 -5 -6 3 -13 -1 -16 -9 -3 -9 -12 -16 -20 -16 -8 0 -14 -5 -14 -12 0 -6
-3 -9 -6 -6 -10 11 -160 -149 -155 -166 1 -6 -7 -18 -37 -51 -6 -7 -12 -20
-12 -28 0 -9 -4 -17 -10 -19 -5 -1 -11 -12 -13 -23 -2 -11 -8 -30 -15 -41 -6
-12 -8 -24 -5 -28 3 -3 1 -6 -6 -6 -8 0 -11 -7 -7 -15 3 -8 0 -15 -6 -15 -6 0
-5 -6 3 -17 9 -11 10 -14 2 -10 -15 9 -29 -35 -17 -54 4 -7 3 -9 -3 -6 -15 9
-23 -29 -9 -44 8 -9 8 -10 -1 -5 -8 5 -13 1 -14 -11 0 -10 -3 -29 -6 -43 -3
-14 -6 -40 -7 -57 0 -18 -3 -33 -6 -33 -3 0 -5 -12 -5 -27 1 -16 -3 -33 -8
-40 -5 -7 -4 -20 2 -32 6 -11 7 -22 3 -25 -9 -5 -13 -52 -16 -158 0 -32 -5
-58 -10 -58 -5 0 -3 -6 3 -13 6 -8 8 -17 4 -21 -10 -10 -11 -46 -1 -52 4 -3 5
-11 1 -17 -12 -19 -13 -46 -3 -52 6 -4 7 -13 1 -23 -14 -27 -12 -1584 2 -1601
9 -11 9 -13 0 -8 -15 9 -14 -234 2 -245 7 -5 6 -8 -1 -8 -12 0 -14 -124 -2
-136 4 -4 2 -16 -3 -27 -6 -11 -7 -22 -3 -26 12 -8 14 -41 2 -41 -5 0 -6 -5
-3 -10 6 -9 13 -93 18 -205 1 -22 6 -43 12 -47 6 -5 5 -8 -4 -8 -9 0 -10 -4
-4 -12 5 -7 8 -23 7 -36 0 -12 1 -22 5 -22 3 0 7 -15 8 -32 1 -18 3 -49 6 -68
3 -19 5 -41 6 -48 0 -7 6 -10 12 -6 8 5 8 1 0 -14 -8 -14 -8 -23 -1 -27 6 -4
9 -14 8 -23 -2 -9 2 -16 8 -15 6 1 11 -5 11 -13 0 -8 -4 -14 -9 -14 -5 0 -2
-10 7 -23 8 -13 12 -27 8 -30 -3 -4 -1 -7 5 -7 7 0 11 -3 11 -7 -3 -19 2 -34
10 -29 4 3 6 -6 3 -21 -3 -16 -1 -24 5 -20 6 4 10 -1 9 -11 0 -9 5 -16 12 -14
8 1 11 -1 9 -5 -8 -12 20 -73 33 -73 6 0 9 -4 6 -9 -3 -5 5 -20 19 -35 13 -14
22 -26 19 -26 -2 0 17 -21 43 -47 26 -27 51 -47 55 -46 4 2 12 -7 18 -18 7
-12 18 -18 26 -15 8 3 13 2 10 -3 -6 -9 26 -33 81 -62 18 -9 30 -12 26 -5 -3
6 3 2 15 -8 12 -10 35 -19 51 -20 16 -1 29 -5 28 -11 -1 -5 4 -9 11 -8 6 2 12
-1 12 -6 0 -5 8 -8 18 -7 9 2 19 0 22 -5 3 -4 22 -9 43 -11 20 -1 37 -5 37 -8
0 -5 36 -11 83 -13 9 -1 17 -4 17 -7 0 -6 44 -11 113 -14 15 0 27 -4 27 -8 0
-5 5 -8 11 -8 5 0 7 5 3 12 -5 7 -3 8 6 3 13 -8 56 -13 147 -18 29 -1 53 -6
53 -10 0 -5 5 -5 11 -2 16 11 89 11 92 1 2 -5 12 -4 24 2 11 6 23 8 27 4 12
-12 136 -10 136 2 0 8 2 8 8 0 9 -14 1827 -16 1854 -3 10 6 19 5 23 -1 6 -10
33 -9 52 3 6 4 14 3 17 -1 6 -10 42 -9 52 1 4 4 13 2 21 -4 7 -6 13 -8 13 -3
0 5 26 10 58 10 106 3 153 7 158 16 3 4 14 3 25 -2 11 -6 25 -8 32 -3 6 4 25
8 42 9 69 5 95 9 95 15 0 4 15 7 33 8 60 1 67 2 67 9 0 7 25 12 68 15 6 0 12
4 12 9 0 4 3 7 8 6 19 -5 72 15 66 24 -4 6 -2 8 3 5 6 -4 28 1 49 10 22 9 41
17 44 18 24 7 39 19 34 26 -3 5 2 6 10 3 9 -3 16 -1 16 6 0 6 5 8 10 5 6 -3
13 1 16 9 3 9 12 16 20 16 8 0 14 5 14 12 0 6 3 9 6 5 9 -8 135 123 129 134
-4 5 1 9 9 9 9 0 16 7 16 15 0 8 4 15 9 15 5 0 14 12 20 27 6 16 15 35 21 43
13 20 34 73 32 82 -1 5 3 8 9 8 5 0 7 4 4 10 -3 5 -1 10 5 10 6 0 9 4 6 8 -2
4 -1 14 4 22 5 9 4 20 -3 29 -9 12 -9 13 0 8 15 -9 29 35 17 54 -4 7 -3 9 3 6
15 -9 23 29 9 44 -8 9 -8 10 2 5 7 -5 12 -1 13 11 0 10 3 29 6 43 3 14 6 40 7
57 0 18 4 33 7 33 3 0 5 18 5 40 -1 22 3 40 7 40 4 0 3 9 -3 19 -7 14 -7 22 1
27 6 3 9 19 7 35 -3 16 -2 29 2 29 3 0 6 49 5 110 0 60 2 110 5 110 10 0 6
205 -4 212 -8 5 -7 8 1 8 15 0 15 1848 0 1868 -6 8 -6 12 1 12 6 0 10 9 9 20
-1 11 -5 20 -10 20 -5 0 -5 6 1 13 6 7 7 18 2 27 -4 7 -4 24 1 37 5 12 5 23 1
23 -5 0 -8 19 -8 43 0 53 -19 262 -24 277 -1 3 -2 17 -2 33 -1 15 -4 27 -8 27
-4 0 -8 10 -8 23 -1 54 -5 77 -12 77 -5 0 -7 11 -5 25 1 14 -2 28 -7 31 -4 3
-6 10 -3 15 4 5 2 9 -2 9 -5 0 -10 12 -11 28 -1 15 -7 29 -12 30 -6 2 -8 8 -4
13 3 5 1 9 -5 9 -5 0 -8 8 -7 18 2 9 0 19 -5 22 -4 3 -9 12 -11 20 -2 8 -9 21
-16 28 -7 8 -10 18 -7 23 4 5 1 9 -5 9 -6 0 -8 5 -5 10 3 6 -1 10 -9 10 -9 0
-15 3 -15 8 3 19 -3 31 -31 61 -17 17 -27 31 -24 31 4 0 1 7 -6 15 -7 8 -17
12 -24 8 -6 -3 -8 -3 -4 1 8 9 -42 62 -54 59 -4 -2 -12 7 -18 18 -7 12 -18 18
-26 15 -8 -3 -13 -2 -10 3 6 9 -26 33 -81 62 -18 9 -30 12 -26 5 3 -6 -3 -2
-15 8 -12 10 -35 19 -51 20 -16 1 -29 6 -28 11 1 6 -4 9 -10 7 -7 -1 -13 3
-13 9 0 6 -9 8 -20 4 -11 -3 -20 -2 -20 3 0 9 -7 10 -55 13 -14 1 -25 5 -25 9
0 3 -6 7 -12 7 -7 0 -31 4 -53 8 -22 4 -58 9 -80 11 -22 1 -40 3 -40 4 0 6
-186 24 -252 24 -24 0 -43 3 -43 8 0 4 -11 4 -23 -1 -13 -5 -30 -5 -37 -1 -9
5 -20 4 -27 -2 -7 -6 -13 -6 -13 -1 0 5 -9 9 -20 10 -11 1 -20 -3 -20 -8 0 -6
-6 -7 -12 -2 -22 13 -419 13 -411 -1 5 -8 3 -8 -8 0 -20 17 -1449 17 -1449 0
0 -7 -3 -8 -8 0 -9 13 -204 13 -215 -1 -6 -6 -10 -6 -14 3 -5 13 -16 16 -26 6z"/>
</g>
</svg>
